<mxfile host="app.diagrams.net" agent="Mozilla/5.0 (Windows NT 10.0; Win64; x64) AppleWebKit/537.36 (KHTML, like Gecko) Chrome/134.0.0.0 Safari/537.36" version="26.1.1">
  <diagram name="Página-1" id="ir6EWmb8i8WrnT0Il4M4">
    <mxGraphModel dx="1434" dy="772" grid="1" gridSize="10" guides="1" tooltips="1" connect="1" arrows="1" fold="1" page="1" pageScale="1" pageWidth="827" pageHeight="1169" math="0" shadow="0">
      <root>
        <mxCell id="0" />
        <mxCell id="1" parent="0" />
        <mxCell id="w6fNYoGjtLuq8DXkfM86-46" style="edgeStyle=orthogonalEdgeStyle;rounded=0;orthogonalLoop=1;jettySize=auto;html=1;exitX=0.5;exitY=1;exitDx=0;exitDy=0;entryX=0.5;entryY=0;entryDx=0;entryDy=0;" parent="1" source="w6fNYoGjtLuq8DXkfM86-1" target="w6fNYoGjtLuq8DXkfM86-2" edge="1">
          <mxGeometry relative="1" as="geometry" />
        </mxCell>
        <mxCell id="w6fNYoGjtLuq8DXkfM86-1" value="" style="ellipse;whiteSpace=wrap;html=1;aspect=fixed;fillColor=#e51400;fontColor=#ffffff;strokeColor=#B20000;" parent="1" vertex="1">
          <mxGeometry x="100" y="40" width="80" height="80" as="geometry" />
        </mxCell>
        <mxCell id="w6fNYoGjtLuq8DXkfM86-21" style="edgeStyle=orthogonalEdgeStyle;rounded=0;orthogonalLoop=1;jettySize=auto;html=1;exitX=1;exitY=0.5;exitDx=0;exitDy=0;" parent="1" source="w6fNYoGjtLuq8DXkfM86-2" target="w6fNYoGjtLuq8DXkfM86-5" edge="1">
          <mxGeometry relative="1" as="geometry" />
        </mxCell>
        <mxCell id="w6fNYoGjtLuq8DXkfM86-2" value="escolha uma das opções:&lt;div&gt;1- sacar&lt;/div&gt;&lt;div&gt;2- depositar&lt;/div&gt;&lt;div&gt;3- verificar saldo&lt;/div&gt;" style="shape=parallelogram;perimeter=parallelogramPerimeter;whiteSpace=wrap;html=1;fixedSize=1;fontSize=11;fillColor=#fff2cc;strokeColor=#d6b656;" parent="1" vertex="1">
          <mxGeometry x="60" y="200" width="160" height="80" as="geometry" />
        </mxCell>
        <mxCell id="w6fNYoGjtLuq8DXkfM86-17" style="edgeStyle=orthogonalEdgeStyle;rounded=0;orthogonalLoop=1;jettySize=auto;html=1;exitX=0.5;exitY=1;exitDx=0;exitDy=0;" parent="1" source="w6fNYoGjtLuq8DXkfM86-3" edge="1">
          <mxGeometry relative="1" as="geometry">
            <mxPoint x="140" y="520" as="targetPoint" />
          </mxGeometry>
        </mxCell>
        <mxCell id="w6fNYoGjtLuq8DXkfM86-19" style="edgeStyle=orthogonalEdgeStyle;rounded=0;orthogonalLoop=1;jettySize=auto;html=1;exitX=1;exitY=0.5;exitDx=0;exitDy=0;" parent="1" source="w6fNYoGjtLuq8DXkfM86-3" target="w6fNYoGjtLuq8DXkfM86-4" edge="1">
          <mxGeometry relative="1" as="geometry" />
        </mxCell>
        <mxCell id="w6fNYoGjtLuq8DXkfM86-3" value="opções" style="rhombus;whiteSpace=wrap;html=1;fillColor=#d5e8d4;strokeColor=#82b366;" parent="1" vertex="1">
          <mxGeometry x="80" y="360" width="120" height="80" as="geometry" />
        </mxCell>
        <mxCell id="w6fNYoGjtLuq8DXkfM86-24" style="edgeStyle=orthogonalEdgeStyle;rounded=0;orthogonalLoop=1;jettySize=auto;html=1;exitX=1;exitY=0.5;exitDx=0;exitDy=0;entryX=0;entryY=0.5;entryDx=0;entryDy=0;" parent="1" source="w6fNYoGjtLuq8DXkfM86-4" target="w6fNYoGjtLuq8DXkfM86-7" edge="1">
          <mxGeometry relative="1" as="geometry" />
        </mxCell>
        <mxCell id="w6fNYoGjtLuq8DXkfM86-4" value="valor do saque?" style="shape=parallelogram;perimeter=parallelogramPerimeter;whiteSpace=wrap;html=1;fixedSize=1;fillColor=#fff2cc;strokeColor=#d6b656;" parent="1" vertex="1">
          <mxGeometry x="280" y="360" width="160" height="80" as="geometry" />
        </mxCell>
        <mxCell id="w6fNYoGjtLuq8DXkfM86-22" style="edgeStyle=orthogonalEdgeStyle;rounded=0;orthogonalLoop=1;jettySize=auto;html=1;exitX=0.5;exitY=0;exitDx=0;exitDy=0;entryX=0.5;entryY=1;entryDx=0;entryDy=0;" parent="1" source="w6fNYoGjtLuq8DXkfM86-5" target="w6fNYoGjtLuq8DXkfM86-8" edge="1">
          <mxGeometry relative="1" as="geometry" />
        </mxCell>
        <mxCell id="w6fNYoGjtLuq8DXkfM86-47" style="edgeStyle=orthogonalEdgeStyle;rounded=0;orthogonalLoop=1;jettySize=auto;html=1;exitX=0.5;exitY=1;exitDx=0;exitDy=0;entryX=0.5;entryY=0;entryDx=0;entryDy=0;" parent="1" source="w6fNYoGjtLuq8DXkfM86-5" target="w6fNYoGjtLuq8DXkfM86-4" edge="1">
          <mxGeometry relative="1" as="geometry" />
        </mxCell>
        <mxCell id="w6fNYoGjtLuq8DXkfM86-5" value="valor do deposito?" style="shape=parallelogram;perimeter=parallelogramPerimeter;whiteSpace=wrap;html=1;fixedSize=1;fillColor=#fff2cc;strokeColor=#d6b656;" parent="1" vertex="1">
          <mxGeometry x="280" y="200" width="160" height="80" as="geometry" />
        </mxCell>
        <mxCell id="w6fNYoGjtLuq8DXkfM86-6" value="mostrar saldo" style="shape=tape;whiteSpace=wrap;html=1;size=0.2;fillColor=#ffe6cc;strokeColor=#d79b00;" parent="1" vertex="1">
          <mxGeometry x="80" y="510" width="120" height="100" as="geometry" />
        </mxCell>
        <mxCell id="w6fNYoGjtLuq8DXkfM86-25" style="edgeStyle=orthogonalEdgeStyle;rounded=0;orthogonalLoop=1;jettySize=auto;html=1;exitX=0.5;exitY=0;exitDx=0;exitDy=0;entryX=0.5;entryY=1;entryDx=0;entryDy=0;" parent="1" source="w6fNYoGjtLuq8DXkfM86-7" target="w6fNYoGjtLuq8DXkfM86-9" edge="1">
          <mxGeometry relative="1" as="geometry" />
        </mxCell>
        <mxCell id="w6fNYoGjtLuq8DXkfM86-7" value="tem saldo o suficiente?" style="rhombus;whiteSpace=wrap;html=1;fillColor=#d5e8d4;strokeColor=#82b366;" parent="1" vertex="1">
          <mxGeometry x="520" y="360" width="120" height="80" as="geometry" />
        </mxCell>
        <mxCell id="w6fNYoGjtLuq8DXkfM86-8" value="saldo = saldo + saque" style="whiteSpace=wrap;html=1;fillColor=#dae8fc;strokeColor=#6c8ebf;" parent="1" vertex="1">
          <mxGeometry x="300" y="40" width="120" height="80" as="geometry" />
        </mxCell>
        <mxCell id="w6fNYoGjtLuq8DXkfM86-9" value="saldo = saldo - saque" style="whiteSpace=wrap;html=1;fillColor=#dae8fc;strokeColor=#6c8ebf;" parent="1" vertex="1">
          <mxGeometry x="520" y="240" width="120" height="80" as="geometry" />
        </mxCell>
        <mxCell id="w6fNYoGjtLuq8DXkfM86-10" value="saldo insuficiente" style="shape=tape;whiteSpace=wrap;html=1;size=0.2;fillColor=#ffe6cc;strokeColor=#d79b00;" parent="1" vertex="1">
          <mxGeometry x="720" y="350" width="120" height="100" as="geometry" />
        </mxCell>
        <mxCell id="w6fNYoGjtLuq8DXkfM86-29" style="edgeStyle=orthogonalEdgeStyle;rounded=0;orthogonalLoop=1;jettySize=auto;html=1;exitX=0.5;exitY=1;exitDx=0;exitDy=0;entryX=0.5;entryY=0;entryDx=0;entryDy=0;" parent="1" source="w6fNYoGjtLuq8DXkfM86-13" target="w6fNYoGjtLuq8DXkfM86-15" edge="1">
          <mxGeometry relative="1" as="geometry" />
        </mxCell>
        <mxCell id="w6fNYoGjtLuq8DXkfM86-13" value="&lt;font style=&quot;font-size: 10px;&quot;&gt;deseja fazer outra operação?&lt;/font&gt;" style="shape=parallelogram;perimeter=parallelogramPerimeter;whiteSpace=wrap;html=1;fixedSize=1;fillColor=#fff2cc;strokeColor=#d6b656;" parent="1" vertex="1">
          <mxGeometry x="500" y="520" width="160" height="80" as="geometry" />
        </mxCell>
        <mxCell id="w6fNYoGjtLuq8DXkfM86-43" style="edgeStyle=orthogonalEdgeStyle;rounded=0;orthogonalLoop=1;jettySize=auto;html=1;exitX=0.5;exitY=1;exitDx=0;exitDy=0;entryX=0.5;entryY=0;entryDx=0;entryDy=0;" parent="1" source="w6fNYoGjtLuq8DXkfM86-15" target="w6fNYoGjtLuq8DXkfM86-42" edge="1">
          <mxGeometry relative="1" as="geometry" />
        </mxCell>
        <mxCell id="w6fNYoGjtLuq8DXkfM86-15" value="?" style="rhombus;whiteSpace=wrap;html=1;fillColor=#d5e8d4;strokeColor=#82b366;" parent="1" vertex="1">
          <mxGeometry x="520" y="680" width="120" height="80" as="geometry" />
        </mxCell>
        <mxCell id="w6fNYoGjtLuq8DXkfM86-16" value="" style="endArrow=classic;html=1;rounded=0;entryX=0.5;entryY=0;entryDx=0;entryDy=0;" parent="1" target="w6fNYoGjtLuq8DXkfM86-3" edge="1">
          <mxGeometry width="50" height="50" relative="1" as="geometry">
            <mxPoint x="140" y="280" as="sourcePoint" />
            <mxPoint x="190" y="230" as="targetPoint" />
          </mxGeometry>
        </mxCell>
        <mxCell id="w6fNYoGjtLuq8DXkfM86-26" style="edgeStyle=orthogonalEdgeStyle;rounded=0;orthogonalLoop=1;jettySize=auto;html=1;exitX=0.5;exitY=1;exitDx=0;exitDy=0;entryX=0.5;entryY=0;entryDx=0;entryDy=0;" parent="1" source="w6fNYoGjtLuq8DXkfM86-7" target="w6fNYoGjtLuq8DXkfM86-13" edge="1">
          <mxGeometry relative="1" as="geometry">
            <mxPoint x="580" y="500" as="targetPoint" />
          </mxGeometry>
        </mxCell>
        <mxCell id="w6fNYoGjtLuq8DXkfM86-27" style="edgeStyle=orthogonalEdgeStyle;rounded=0;orthogonalLoop=1;jettySize=auto;html=1;exitX=1;exitY=0.5;exitDx=0;exitDy=0;entryX=0;entryY=0.5;entryDx=0;entryDy=0;entryPerimeter=0;" parent="1" source="w6fNYoGjtLuq8DXkfM86-7" target="w6fNYoGjtLuq8DXkfM86-10" edge="1">
          <mxGeometry relative="1" as="geometry" />
        </mxCell>
        <mxCell id="w6fNYoGjtLuq8DXkfM86-33" value="" style="endArrow=classic;html=1;rounded=0;entryX=1;entryY=0.5;entryDx=0;entryDy=0;" parent="1" target="w6fNYoGjtLuq8DXkfM86-13" edge="1">
          <mxGeometry width="50" height="50" relative="1" as="geometry">
            <mxPoint x="760" y="560" as="sourcePoint" />
            <mxPoint x="810" y="510" as="targetPoint" />
          </mxGeometry>
        </mxCell>
        <mxCell id="w6fNYoGjtLuq8DXkfM86-35" value="" style="endArrow=none;html=1;rounded=0;" parent="1" edge="1">
          <mxGeometry width="50" height="50" relative="1" as="geometry">
            <mxPoint x="760" y="560" as="sourcePoint" />
            <mxPoint x="760" y="450" as="targetPoint" />
          </mxGeometry>
        </mxCell>
        <mxCell id="w6fNYoGjtLuq8DXkfM86-37" value="" style="endArrow=none;html=1;rounded=0;" parent="1" edge="1">
          <mxGeometry width="50" height="50" relative="1" as="geometry">
            <mxPoint x="360" y="560" as="sourcePoint" />
            <mxPoint x="360" y="440" as="targetPoint" />
          </mxGeometry>
        </mxCell>
        <mxCell id="w6fNYoGjtLuq8DXkfM86-38" value="" style="endArrow=classic;html=1;rounded=0;" parent="1" target="w6fNYoGjtLuq8DXkfM86-13" edge="1">
          <mxGeometry width="50" height="50" relative="1" as="geometry">
            <mxPoint x="360" y="560" as="sourcePoint" />
            <mxPoint x="410" y="510" as="targetPoint" />
          </mxGeometry>
        </mxCell>
        <mxCell id="w6fNYoGjtLuq8DXkfM86-39" value="" style="endArrow=none;dashed=1;html=1;dashPattern=1 3;strokeWidth=2;rounded=0;" parent="1" edge="1">
          <mxGeometry width="50" height="50" relative="1" as="geometry">
            <mxPoint x="40" y="720" as="sourcePoint" />
            <mxPoint x="520" y="720" as="targetPoint" />
          </mxGeometry>
        </mxCell>
        <mxCell id="w6fNYoGjtLuq8DXkfM86-40" value="" style="endArrow=none;dashed=1;html=1;dashPattern=1 3;strokeWidth=2;rounded=0;" parent="1" edge="1">
          <mxGeometry width="50" height="50" relative="1" as="geometry">
            <mxPoint x="40" y="720" as="sourcePoint" />
            <mxPoint x="40" y="240" as="targetPoint" />
          </mxGeometry>
        </mxCell>
        <mxCell id="w6fNYoGjtLuq8DXkfM86-41" value="" style="endArrow=none;dashed=1;html=1;dashPattern=1 3;strokeWidth=2;rounded=0;entryX=0;entryY=0.5;entryDx=0;entryDy=0;" parent="1" target="w6fNYoGjtLuq8DXkfM86-2" edge="1">
          <mxGeometry width="50" height="50" relative="1" as="geometry">
            <mxPoint x="40" y="240" as="sourcePoint" />
            <mxPoint x="90" y="190" as="targetPoint" />
          </mxGeometry>
        </mxCell>
        <mxCell id="w6fNYoGjtLuq8DXkfM86-42" value="" style="ellipse;whiteSpace=wrap;html=1;fillColor=#e51400;fontColor=#ffffff;strokeColor=#B20000;" parent="1" vertex="1">
          <mxGeometry x="540" y="840" width="80" height="80" as="geometry" />
        </mxCell>
        <mxCell id="w6fNYoGjtLuq8DXkfM86-45" value="" style="endArrow=none;html=1;rounded=0;" parent="1" edge="1">
          <mxGeometry width="50" height="50" relative="1" as="geometry">
            <mxPoint x="200" y="560" as="sourcePoint" />
            <mxPoint x="360" y="560" as="targetPoint" />
          </mxGeometry>
        </mxCell>
      </root>
    </mxGraphModel>
  </diagram>
</mxfile>
